<svg xmlns="http://www.w3.org/2000/svg" xmlns:xlink="http://www.w3.org/1999/xlink" id="Layer_1" x="0px" y="0px" viewBox="0 0 1820 724" style="enable-background:new 0 0 1820 724;" xml:space="preserve"><style type="text/css">	.st0{fill:#008188;}	.st1{fill:#008188;stroke:#008188;stroke-width:10;stroke-miterlimit:10;}</style><g id="XMLID_2_">	<g>		<path class="st0" d="M705.9,361.9c-41.2-37.1-84.4-63.9-126.9-80.4c0,0,0,0-0.1,0c22.9-38.3,40.7-86.8,42.8-145.1    C677.9,201.1,705.9,281.5,705.9,361.9z M700.4,350.6c-11.3-17.7-20.2-27-28.5-38c-27.5-36.8-41.5-56.1-44.4-111    c-0.6-12.1-0.7-31.1-1.5-47c-1.5,8.9-3.1,18.2-4.7,28c-10.4,64.7-19.4,91,48.2,140.9C679.5,330.8,686.3,336.4,700.4,350.6z"></path>		<path class="st0" d="M705.9,362.1c0,80.4-28,160.7-84,225.2c-2.1-58.5-20.1-107.1-43.2-145.5c-0.1-0.2-0.1-0.4-0.2-0.5    C621,424.8,664.6,399.3,705.9,362.1z M671.9,411.5c8.2-11,17.2-20.3,28.5-38c-14.1,14.2-20.9,19.8-30.9,27.2    c-67.6,49.9-58.6,76.2-48.2,140.9c1.6,9.8,3.2,19.1,4.7,28c0.8-15.9,0.9-34.9,1.5-47C630.4,467.6,644.5,448.3,671.9,411.5z"></path>		<path class="st0" d="M617.5,106.2c141.2,141.3,141.2,370.3,0,511.5c-141.2,141.2-370.2,141.2-511.5,0    c-141.1-141.1-141.1-370.1,0.1-511.3C247.4-34.9,476.4-34.9,617.5,106.2z M610,610.2c137.1-137.1,137.1-359.4,0-496.5    c-137-137-359.2-137-496.4,0.2c-137.1,137.1-137.1,359.4-0.1,496.3C250.6,747.3,472.9,747.3,610,610.2z"></path>		<path class="st0" d="M598.7,300.9c29.1,0,52.5,27.8,52.5,61.1c0,33.7-24,61.8-53.7,61.1c-17.9-0.4-29-7.3-39.4-19.7    c7.7,10.4,15.4,25.2,20.2,37.9c0,0-0.1,0-0.1,0c-21.2-35-46.5-61.5-68-79.3v0c21.6-17.9,47.2-44.6,68.4-80.1c0,0,0,0,0,0v0    c-4.9,12.8-12.7,28.1-20.6,38.7c10.4-12.4,21.5-19.2,39.4-19.7C598,300.9,598.3,300.9,598.7,300.9z M640.5,362    c-10-1.3-16.6-7.9-18.8-19.7c-1.2-6.4-2.1-31-12.1-34.2c5.7,14.2,7.2,33.6,2.1,43c-0.9,1.6-2.4,4.2-5.9,4.2c-2,0-18.2,0-19.6,0    c0,1.8,0,11.5,0,13.3c1.5,0,17.6,0,19.6,0c3.4,0,5,2.6,5.9,4.2c5.1,9.4,3.7,28.8-2.1,43c10-3.2,10.9-27.8,12.1-34.2    C623.8,369.9,630.5,363.3,640.5,362z M608,389.6c0.1-4.3-1.3-15.3-5.7-19.3c-2.6,7.9-7.8,11.1-8.5,15.3c1.5-1.6,3.8-2.9,6.2-2.9    C603.9,382.8,607.3,386,608,389.6z M602.3,353.6c4.4-3.9,5.8-15,5.7-19.3c-0.8,3.6-4.1,6.8-8,6.8c-2.4,0-4.7-1.2-6.2-2.9    C594.5,342.5,599.7,345.8,602.3,353.6z M600,325.2c3.5,0,6.7,2.6,7.8,5.7c-1.1-8.9-4.5-18.5-8.8-20.8c-0.1,5.6-7.4,13.4-6.8,21.2    C593.1,327.9,596.3,325.2,600,325.2z M607.8,393.2c-1.1,3.1-4.2,5.7-7.8,5.7c-3.7,0-6.9-2.7-7.9-6c-0.5,7.8,6.8,15.6,6.8,21.2    C603.2,411.7,606.7,402,607.8,393.2z M589.5,346.6c-4.4-7.1-6.3-26-1.2-35.3c-3.6,1.6-5.1,3.3-7.1,6.7c-1.6,2.7-3.9,4.1-7.1,4.9    c-4.5,1.2-9.1,2.4-10.8,4.2c8.6-0.6,14.6,0.9,17.5,5.1C584.6,337.9,583.9,343.1,589.5,346.6z M588.3,412.6    c-5.1-9.2-3.3-28.2,1.2-35.3c-5.5,3.5-4.8,8.8-8.7,14.4c-2.9,4.2-8.9,5.8-17.5,5.1c1.8,1.8,6.4,3,10.8,4.1    c3.2,0.8,5.5,2.3,7.1,4.9C583.2,409.4,584.7,411,588.3,412.6z M580.9,362c0-12.1-8.3-21.9-18.6-21.9c-10.3,0-18.6,9.8-18.6,21.9    c0,12.1,8.3,21.9,18.6,21.9C572.6,383.9,580.9,374.1,580.9,362z"></path>		<path class="st0" d="M574.1,149.7c28.5,28.5,31.1,72,5.9,97.2c-11.2,11.2-26.6,15.5-42.3,15.8c6.5,2.4,19.1,5.4,39.2,18.1    c-37.7-14.3-74.8-20.4-108.8-22.4c-2.1-35-10.4-73.8-26.4-113.4c13.7,21.2,16.8,34.3,19.3,41c0.2-15.7,4.5-31,15.8-42.3    C502.1,118.6,545.7,121.2,574.1,149.7z M590.9,221.3c2.8-13.9-20.7-41.1-30.2-49.5c-8.6,7.1-15.2,10.5-17.2,8.6    c-2-2,1.5-8.6,8.6-17.2c-8.4-9.5-35.6-33-49.5-30.2c22.7,13.9,43.5,35.4,35.1,43.8l-24.2,24.2l4.7,4.7l4.7,4.7l24.2-24.2    C555.5,177.8,577,198.5,590.9,221.3z M576.4,240.2c1-7.4,2.5-20.4-10.6-32.1c2.6,3.8,2.4,8.9-0.9,12.2c-2.7,2.7-7.1,3.2-10.6,1.7    C559.3,225.5,569.9,227,576.4,240.2z M550.8,206.2c2.8-2.7,7.2-3.2,10.8-1.7c-4.1-2.8-11.9-7.2-21.7-6.8c5.8,5,5.8,13,8.7,17.6    C547.7,212.2,548.4,208.6,550.8,206.2z M546.7,243.6c2-0.5,13.2-2.5,19.2-6.2c-11.5,1-23.1,3.5-28-4.2c-0.6-1-3.9-8.3-7.2-11    c5.8,13.9,5.2,27.6,1.2,36.8c3.6-2.5,7.2-10,8.4-11.6C541.5,245.8,543.7,244.4,546.7,243.6z M526.1,184c0.4-9.8-4-17.6-6.8-21.7    c1.5,3.5,1.1,8-1.7,10.8c-2.4,2.4-6,3.1-9.2,2.2C513,178.2,521.1,178.2,526.1,184z M518.4,243.3c8.9-8.9,7.7-24.6-2.8-35.1    c-10.5-10.4-26.2-11.7-35.1-2.8c-8.9,8.9-7.7,24.6,2.8,35.1C493.8,250.9,509.5,252.2,518.4,243.3z M503.5,158.9    c3.2-3.2,8.3-3.5,12.2-0.9c-11.6-13.1-24.7-11.6-32.1-10.6c13.2,6.5,14.8,17.1,18.2,22.1C500.3,166,500.8,161.6,503.5,158.9z     M501.6,193.1c-2.6-3.2-10-6.6-11-7.2c-7.7-4.9-5.2-16.5-4.1-28c-3.7,6.1-5.7,17.2-6.2,19.2c-0.8,3-2.2,5.1-3.9,6.4    c-1.6,1.2-9.2,4.8-11.6,8.4C473.9,187.9,487.6,187.4,501.6,193.1z"></path>		<path class="st0" d="M579.4,477.1c25.2,25.2,22.6,68.7-5.9,97.2c-28.5,28.5-72,31.1-97.2,5.9c-11.2-11.2-15.5-26.5-15.8-42.3    c-2.4,6.4-5.3,18.7-17.6,38.3c15.3-38.7,23.3-76.5,25.3-110.8c34.5-2,71.9-9.5,110.1-24.2c0.1,0.2,0.2,0.3,0.3,0.5    c0,0,0,0.1,0,0.1l-0.5,0.2c-21.2,13.7-34.3,16.8-41,19.3C552.8,461.6,568.2,465.9,579.4,477.1z M560.1,552.3    c9.5-8.4,33-35.6,30.2-49.5c-13.9,22.7-35.4,43.4-43.8,35.1l-24.2-24.2l-4.7,4.7l-4.7,4.7l24.2,24.2c8.4,8.4-12.3,29.9-35.1,43.8    c13.9,2.8,41.1-20.7,49.5-30.2c-7.1-8.6-10.5-15.2-8.6-17.2C544.8,541.7,551.5,545.2,560.1,552.3z M565.2,515.9    c13.1-11.6,11.7-24.7,10.6-32.1c-6.5,13.2-17.1,14.8-22.1,18.2c3.5-1.4,7.9-1,10.6,1.8C567.5,506.9,567.8,512,565.2,515.9z     M560.9,519.5c-3.5,1.5-8,1.1-10.8-1.7c-2.4-2.4-3.1-6-2.2-9.2c-2.9,4.6-2.9,12.6-8.7,17.6C549,526.7,556.8,522.3,560.9,519.5z     M565.3,486.6c-6.1-3.7-17.2-5.7-19.2-6.2c-3-0.8-5.1-2.2-6.3-3.9c-1.2-1.6-4.8-9.2-8.4-11.6c4,9.2,4.5,22.9-1.2,36.8    c3.2-2.6,6.6-10,7.2-11C542.2,483.1,553.8,485.6,565.3,486.6z M518.7,561.7c2.8-4.1,7.2-11.9,6.8-21.7c-5,5.8-13,5.8-17.6,8.7    c3.2-0.8,6.8-0.1,9.2,2.2C519.8,553.7,520.2,558.2,518.7,561.7z M515,515.8c10.5-10.5,11.7-26.2,2.8-35.1    c-8.9-8.9-24.6-7.7-35.1,2.8c-10.5,10.4-11.7,26.1-2.8,35.1C488.9,527.5,504.6,526.3,515,515.8z M515.1,566    c-3.9,2.6-9,2.4-12.2-0.9c-2.7-2.7-3.2-7.1-1.7-10.6c-3.4,5-5,15.6-18.2,22.1C490.4,577.6,503.4,579.1,515.1,566z M490,538    c1-0.6,8.3-3.9,11-7.2c-13.9,5.8-27.6,5.2-36.8,1.2c2.5,3.6,10,7.2,11.6,8.4c1.6,1.2,3.1,3.4,3.9,6.3c0.5,2.1,2.5,13.2,6.2,19.2    C484.8,554.6,482.3,543,490,538z"></path>		<path class="st0" d="M570.5,362c0,6.2-4.1,11.2-9.2,11.2s-9.2-5-9.2-11.2c0-6.2,4.1-11.2,9.2-11.2    C566.4,350.8,570.5,355.8,570.5,362z"></path>		<path class="st0" d="M510.3,362L510.3,362c-4.8,0-56.3,3.1-68.3,32.6h0c8.4-20.7,8.4-44,0.1-64.8C454.4,359,505.6,362,510.3,362z"></path>		<path class="st0" d="M507.9,215.9c5.8,5.8,6.3,14.6,1.2,19.7c-5.1,5.1-13.9,4.6-19.6-1.2c-5.8-5.8-6.3-14.5-1.2-19.6    C493.4,209.6,502.2,210.2,507.9,215.9z"></path>		<path class="st0" d="M508.5,488.5c5.1,5.1,4.6,13.9-1.2,19.6c-5.8,5.8-14.5,6.3-19.6,1.2s-4.6-13.9,1.2-19.6    C494.6,483.9,503.4,483.4,508.5,488.5z"></path>		<path class="st0" d="M496.4,344.5c3.4,4,7.7,9.5,14,17.5c-7.6-6.5-46.7-37.8-50.2-40.7c2.1-14.3,8.5-48.1,8.1-62.8    c2.3,8.2,1.5,17.6,1.7,20.7C471.6,305.7,479.4,324.8,496.4,344.5z"></path>		<path class="st0" d="M510.3,362c-6.3,8.1-10.5,13.6-14,17.5c-17,19.7-24.8,38.7-26.4,65.3c-0.2,3.1,0.6,12.5-1.7,20.7    c0.4-14.8-6.1-48.5-8.1-62.8C463.7,399.8,502.8,368.5,510.3,362z"></path>		<path class="st0" d="M468.2,258.5c-14.8-0.4-51.4,3.2-65.7,5.3c-2.9-3.6-34.2-42.6-40.7-50.2c8.1,6.2,13.6,10.5,17.5,14    c19.7,17,38.7,24.8,65.3,26.4C447.7,254.1,460,256.1,468.2,258.5z"></path>		<path class="st0" d="M402.5,460.3c14.3,2.1,50.9,5.6,65.7,5.3c-8.2,2.3-20.5,4.4-23.6,4.6c-26.5,1.7-45.6,9.4-65.3,26.4    c-4,3.4-9.5,7.7-17.5,14v0C368.3,502.9,399.6,463.8,402.5,460.3z"></path>		<path class="st0" d="M587.2,101.9c-58.4,2.2-107,20.1-145.4,43.1c-17.2-42.8-43.4-86.4-80-127.1    C442.3,17.9,522.8,45.9,587.2,101.9z M569.3,97.8c-15.9-0.8-34.9-0.9-47-1.5c-54.9-2.9-74.2-16.9-111-44.4    c-11-8.2-20.4-17.2-38-28.5c14.2,14.1,19.8,20.9,27.2,30.9c49.8,67.6,76.2,58.6,140.9,48.2C551.1,100.9,560.4,99.3,569.3,97.8z"></path>		<path class="st0" d="M441.9,579c38.4,23,86.8,40.9,145.3,43c-64.5,56-144.9,84-225.3,84C398.5,665.4,424.6,621.7,441.9,579z     M522.3,627.7c12.1-0.6,31.1-0.7,47-1.5c-8.9-1.5-18.2-3.1-28-4.7c-64.7-10.4-91-19.4-140.9,48.2c-7.4,10-13,16.8-27.2,30.9    c17.7-11.3,27-20.2,38-28.5C448.1,644.6,467.4,630.6,522.3,627.7z"></path>		<path class="st0" d="M442.1,394.6c-0.1,0.2-0.2,0.4-0.2,0.6c-4.9,11.1,1.9,43,26.4,70.4c-27.4-24.5-62.1-28.4-73.3-23.5v0    c10.2-4.2,19.8-10.5,28.1-18.8C431.5,414.8,437.8,405,442.1,394.6L442.1,394.6z"></path>		<path class="st0" d="M441.4,578.7C441.4,578.7,441.4,578.7,441.4,578.7c-12.8-4.8-27.8-12.6-38.2-20.3    c12.4,10.4,19.2,21.5,19.7,39.4c0.7,29.6-27.3,53.7-61.1,53.7h0c-33.7,0-61.8-24-61.1-53.7c0.4-17.9,7.3-29,19.7-39.4    c-10.6,7.9-25.8,15.7-38.6,20.5c35.4-21.2,62.1-46.8,80-68.4h0C379.6,532,406.2,557.5,441.4,578.7z M412.5,588.5    c-1.6-3.6-3.3-5.1-6.7-7.1c-2.6-1.6-4.1-3.9-4.9-7.1c-1.2-4.5-2.4-9.1-4.1-10.9c0.6,8.6-0.9,14.6-5.1,17.5    c-5.6,3.9-10.9,3.2-14.4,8.7C384.2,585.2,403.2,583.4,412.5,588.5z M393,608c8.9-1.1,18.5-4.5,20.8-8.8    c-5.6-0.1-13.4-7.4-21.2-6.8c3.3,1,6,4.2,6,7.9C398.6,603.7,396.1,606.8,393,608z M381.5,621.9c6.4-1.2,31-2.1,34.2-12.1    c-14.2,5.8-33.6,7.2-43,2.1c-1.6-0.9-4.1-2.4-4.1-5.9c0-2,0-18.2,0-19.6c-1.8,0-11.5,0-13.3,0c0,1.5,0,17.6,0,19.6    c0,3.4-2.6,5-4.1,5.9c-9.4,5.1-28.8,3.7-43-2.1c3.2,10,27.8,10.9,34.2,12.1c11.8,2.2,18.3,8.8,19.6,18.8    C363.1,630.7,369.7,624,381.5,621.9z M370.2,602.5c4,4.4,15,5.8,19.3,5.7c-3.6-0.8-6.8-4.1-6.8-8c0-2.4,1.2-4.7,2.9-6.2    C381.3,594.7,378.1,599.9,370.2,602.5z M383.7,562.5c0-10.3-9.8-18.6-21.9-18.6c-12.1,0-21.9,8.3-21.9,18.6    c0,10.3,9.8,18.6,21.9,18.6C373.9,581.1,383.7,572.7,383.7,562.5z M353.5,602.5c-7.9-2.6-11.1-7.8-15.3-8.5    c1.6,1.5,2.9,3.8,2.9,6.2c0,3.9-3.2,7.3-6.8,8C338.5,608.3,349.5,606.9,353.5,602.5z M346.5,589.7c-3.5-5.6-8.8-4.8-14.4-8.7    c-4.2-2.9-5.8-8.9-5.1-17.5c-1.7,1.8-3,6.4-4.1,10.9c-0.8,3.2-2.3,5.5-4.9,7.1c-3.4,2-5.1,3.6-6.7,7.1    C320.4,583.4,339.4,585.2,346.5,589.7z M331,592.3c-7.8-0.5-15.6,6.8-21.2,6.8c2.3,4.3,12,7.7,20.8,8.8c-3.1-1.1-5.7-4.2-5.7-7.8    C325,596.5,327.7,593.3,331,592.3z"></path>		<path class="st0" d="M468.2,258.5c-24.4,27.3-31.3,59.1-26.5,70.3c-4.2-10.2-10.5-19.7-18.8-28c-8.1-8.1-17.5-14.3-27.6-18.6    C407.2,286.8,441.3,282.6,468.2,258.5z"></path>		<path class="st0" d="M403.2,165.6c10.6-7.9,25.8-15.7,38.7-20.6c-35.4,21.2-62.1,46.9-80,68.5h0v0c-17.9-21.6-44.6-47.2-80-68.4    c12.8,4.9,28,12.7,38.6,20.5c-12.4-10.4-19.2-21.5-19.7-39.4c0-0.4,0-0.8,0-1.1c0-29.1,27.8-52.6,61.1-52.6    c33.7,0,61.8,24,61.1,53.7C422.5,144.1,415.6,155.2,403.2,165.6z M405.8,142.6c3.4-2,5.1-3.6,6.7-7.1c-9.3,5.1-28.2,3.3-35.3-1.2    c3.5,5.5,8.8,4.8,14.4,8.7c4.2,2.9,5.8,8.9,5.1,17.5c1.7-1.8,3-6.4,4.1-10.9C401.7,146.5,403.1,144.2,405.8,142.6z M413.8,124.8    c-2.3-4.3-12-7.7-20.8-8.8c3.1,1.1,5.7,4.2,5.7,7.8c0,3.7-2.7,6.9-6,7.9C400.4,132.2,408.2,124.9,413.8,124.8z M415.6,114.2    c-3.2-10-27.8-10.9-34.2-12.1c-11.8-2.2-18.3-8.8-19.6-18.8c-1.3,10-7.9,16.6-19.6,18.8c-6.4,1.2-31,2.1-34.2,12.1    c14.2-5.8,33.6-7.2,43-2.1c1.6,0.9,4.1,2.4,4.1,5.9c0,2,0,18.1,0,19.6c1.8,0,11.5,0,13.3,0c0-1.5,0-17.6,0-19.6    c0-3.4,2.6-5,4.2-5.9C382,107,401.4,108.5,415.6,114.2z M389.5,115.8c-4.3-0.1-15.3,1.3-19.3,5.7c7.9,2.6,11.1,7.8,15.3,8.5    c-1.6-1.5-2.9-3.8-2.9-6.2C382.6,119.9,385.8,116.5,389.5,115.8z M383.7,161.5c0-10.3-9.8-18.6-21.9-18.6    c-12.1,0-21.9,8.3-21.9,18.6c0,10.3,9.8,18.6,21.9,18.6C373.9,180.2,383.7,171.8,383.7,161.5z M338.1,130c4.2-0.8,7.4-6,15.3-8.5    c-4-4.4-15-5.8-19.3-5.7c3.6,0.8,6.8,4.1,6.8,8C341,126.2,339.8,128.6,338.1,130z M332.1,143.1c5.6-3.9,10.9-3.2,14.4-8.7    c-7.1,4.4-26,6.3-35.3,1.2c1.6,3.6,3.3,5.1,6.7,7.1c2.6,1.6,4.1,3.9,4.9,7.1c1.2,4.4,2.4,9.1,4.2,10.9    C326.3,152,327.9,146,332.1,143.1z M309.8,124.8c5.6,0.1,13.4,7.4,21.2,6.8c-3.3-1-6-4.2-6-7.9c0-3.5,2.6-6.7,5.7-7.8    C321.8,117.1,312.2,120.6,309.8,124.8z"></path>		<path class="st0" d="M395,442L395,442c-30,11.5-33.1,63.6-33.1,68.5v0h0c0-4.8-3-56-32.3-68.2C350.5,450.8,374.1,450.7,395,442z"></path>		<path class="st0" d="M393.1,330.7c17.3,17.3,17.3,45.4,0,62.7c-17.3,17.3-45.4,17.3-62.7,0c-17.3-17.3-17.3-45.3,0-62.6    C347.8,313.4,375.9,313.4,393.1,330.7z"></path>		<path class="st0" d="M361.8,153.3c6.2,0,11.2,4.1,11.2,9.2c0,5.1-5,9.2-11.2,9.2c-6.2,0-11.2-4.1-11.2-9.2    C350.6,157.4,355.6,153.3,361.8,153.3z"></path>		<path class="st0" d="M361.8,552.3c6.2,0,11.2,4.1,11.2,9.2c0,5.1-5,9.2-11.2,9.2c-6.2,0-11.2-4.1-11.2-9.2    C350.6,556.4,355.6,552.3,361.8,552.3z"></path>		<path class="st0" d="M361.8,213.5c0,4.8,3.1,56,32.3,68.2c-20.8-8.4-44.1-8.3-64.9,0.1v0C358.7,269.8,361.8,218.3,361.8,213.5    L361.8,213.5z"></path>		<path class="st0" d="M361.8,213.5L361.8,213.5c-6.5,7.6-37.8,46.7-40.7,50.2c-14.3-2-50.9-5.6-65.7-5.3c8.2-2.3,20.5-4.4,23.6-4.6    c26.5-1.6,45.6-9.4,65.3-26.4C348.2,224,353.8,219.7,361.8,213.5z"></path>		<path class="st0" d="M361.8,510.5c-8.1-6.3-13.6-10.5-17.5-14c-19.7-17-38.8-24.8-65.3-26.4c-3.1-0.2-15.4-2.3-23.6-4.6    c14.8,0.4,51.4-3.2,65.7-5.3C324,463.8,355.4,502.9,361.8,510.5z"></path>		<path class="st0" d="M329.2,281.7L329.2,281.7c-10.4,4.2-20.2,10.6-28.6,19c-9,9-15.5,19.4-19.7,30.5l-1.5-0.6    c4.2-12.2-0.2-45.7-23.9-72.2c27.4,24.5,62.1,28.4,73.3,23.5C328.9,281.9,329.1,281.8,329.2,281.7z"></path>		<path class="st0" d="M328.7,442c-11.2-4.9-45.9-0.9-73.3,23.5c24.3-27.2,31.2-58.8,26.5-70.1c4.2,10.1,10.4,19.6,18.7,27.8    C308.9,431.5,318.5,437.8,328.7,442z"></path>		<path class="st0" d="M361.8,17.9c-36.7,40.7-62.8,84.4-80,127.1c-0.2-0.1-0.3-0.2-0.5-0.3c-38.3-22.9-86.6-40.6-144.8-42.8    C201,46,281.4,17.9,361.8,17.9z M323.2,54.3c7.4-10,13-16.8,27.2-30.9c-17.7,11.3-27,20.2-38,28.5c-36.8,27.5-56.1,41.5-111,44.4    c-12.2,0.6-31.1,0.7-47,1.5c8.9,1.5,18.2,3.2,28,4.7C247.1,112.9,273.4,121.9,323.2,54.3z"></path>		<path class="st0" d="M281.8,579c17.2,42.8,43.3,86.4,80,127.1c-80.4,0-160.8-28-225.4-84C194.8,619.9,243.4,602,281.8,579z     M350.4,700.6c-14.2-14.1-19.8-20.9-27.2-30.9c-49.9-67.6-76.2-58.6-140.9-48.2c-9.8,1.6-19.1,3.2-28,4.7    c15.9,0.8,34.9,0.9,47,1.5c54.9,2.9,74.2,16.9,111,44.4C323.4,680.3,332.7,689.3,350.4,700.6z"></path>		<path class="st0" d="M281.8,145C281.8,145,281.8,145,281.8,145c-16,39.6-24.3,78.4-26.4,113.4c-34.5,2-72.2,8.3-110.4,23.1    c20.8-13.3,33.7-16.4,40.3-18.8c-15.7-0.2-31-4.5-42.3-15.8c-25.2-25.2-22.5-68.7,5.9-97.2c28.5-28.5,72-31.1,97.2-5.9    c11.2,11.2,15.5,26.5,15.8,42.3c2.5-6.7,5.6-19.8,19.3-41l0.2-0.3C281.5,144.8,281.6,144.9,281.8,145z M258.2,192    c-2.5-3.6-10-7.2-11.6-8.4c-1.6-1.2-3.1-3.4-3.9-6.3c-0.5-2.1-2.5-13.2-6.2-19.2c1,11.5,3.5,23.1-4.2,28c-1,0.6-8.3,4-10.9,7.2    C235.4,187.4,249,188,258.2,192z M239.6,240.5c10.5-10.5,11.7-26.2,2.8-35.1c-8.9-8.9-24.6-7.6-35.1,2.8    c-10.5,10.5-11.7,26.2-2.8,35.1C213.4,252.2,229.1,250.9,239.6,240.5z M239.4,147.5c-7.4-1-20.4-2.5-32.1,10.6    c3.8-2.6,9-2.4,12.2,0.9c2.7,2.7,3.2,7.1,1.8,10.6C224.6,164.6,226.2,154,239.4,147.5z M220.4,133c-13.9-2.8-41.1,20.7-49.5,30.2    c7.1,8.6,10.5,15.2,8.6,17.2c-2,2-8.6-1.5-17.2-8.6c-9.5,8.4-33,35.6-30.2,49.5c13.9-22.7,35.4-43.4,43.8-35.1l24.2,24.2l4.7-4.7    l4.7-4.7l-24.2-24.2C176.9,168.4,197.7,146.9,220.4,133z M214.5,175.4c-3.2,0.8-6.8,0.1-9.2-2.2c-2.7-2.7-3.2-7.2-1.7-10.8    c-2.8,4.1-7.2,11.9-6.8,21.7C201.9,178.2,209.9,178.2,214.5,175.4z M191.1,259.1c-4-9.2-4.6-22.9,1.2-36.8    c-3.2,2.6-6.6,10-7.2,10.9c-4.9,7.7-16.5,5.2-28,4.1c6.1,3.7,17.2,5.7,19.2,6.2c3,0.8,5.1,2.2,6.4,3.9    C183.9,249.2,187.4,256.7,191.1,259.1z M183.1,197.8c-9.8-0.5-17.5,4-21.7,6.8c3.5-1.5,8-1.1,10.8,1.7c2.4,2.4,3.1,6,2.2,9.2    C177.3,210.8,177.3,202.8,183.1,197.8z M168.6,222.1c-3.5,1.4-7.9,1-10.6-1.7c-3.2-3.2-3.5-8.3-0.9-12.2    c-13.1,11.6-11.7,24.7-10.6,32.1C153.1,227.1,163.7,225.5,168.6,222.1z"></path>		<path class="st0" d="M279.3,330.7l1.5,0.6c-7.6,20.1-7.5,42.5,0.4,62.5C268.7,365,218,362,213.3,362v0c3.8,0,55.1-2.9,65.6-30.3    C279,331.4,279.2,331,279.3,330.7z"></path>		<path class="st0" d="M281.7,578.9c-13.6-21.1-16.8-34.3-19.2-40.9c-0.2,15.7-4.5,31-15.8,42.3c-25.2,25.2-68.7,22.5-97.2-5.9    c-28.5-28.5-31.1-72-5.9-97.2c11.2-11.2,26.6-15.5,42.3-15.8c-6.7-2.5-19.8-5.6-41-19.3l0,0c0,0,0,0,0,0c0.1-0.3,0.3-0.5,0.5-0.8    c38.2,14.8,75.6,22.2,110.1,24.2C257.4,500.6,265.8,539.4,281.7,578.9z M247.3,540.5c1.6-1.2,9.2-4.8,11.6-8.4    c-9.2,4-22.9,4.6-36.8-1.2c2.6,3.2,10,6.6,10.9,7.2c7.7,4.9,5.2,16.5,4.1,28c3.7-6,5.7-17.2,6.2-19.2    C244.2,543.9,245.7,541.8,247.3,540.5z M243.1,518.7c8.9-8.9,7.6-24.6-2.8-35.1c-10.4-10.4-26.2-11.7-35.1-2.8    c-8.9,8.9-7.7,24.6,2.8,35.1C218.5,526.3,234.2,527.6,243.1,518.7z M208,566c11.6,13.1,24.7,11.7,32.1,10.6    c-13.2-6.5-14.8-17.1-18.2-22.1c1.4,3.5,1,7.9-1.7,10.6C217,568.4,211.9,568.6,208,566z M171.6,560.9c8.4,9.5,35.6,33,49.5,30.2    c-22.7-13.9-43.4-35.4-35.1-43.8l24.2-24.2l-4.7-4.7l-4.7-4.7l-24.2,24.2c-8.4,8.4-29.9-12.4-43.8-35.1    c-2.8,13.9,20.7,41.1,30.2,49.5c8.6-7.1,15.2-10.5,17.2-8.6C182.1,545.7,178.7,552.3,171.6,560.9z M206,551c2.4-2.4,6-3.1,9.2-2.2    c-4.6-2.9-12.6-2.9-17.6-8.7c-0.5,9.8,3.9,17.5,6.8,21.7C202.8,558.2,203.3,553.7,206,551z M193,501.8    c-5.8-13.9-5.2-27.6-1.2-36.8c-3.6,2.5-7.2,10-8.4,11.6c-1.2,1.6-3.4,3.1-6.3,3.9c-2.1,0.5-13.2,2.5-19.2,6.2    c11.5-1,23.1-3.5,28,4.1C186.4,491.8,189.8,499.1,193,501.8z M162.2,519.6c4.1,2.8,11.9,7.2,21.7,6.8c-5.8-5-5.8-13-8.7-17.6    c0.8,3.2,0.1,6.8-2.2,9.2C170.2,520.7,165.7,521.1,162.2,519.6z M158.8,503.7c2.7-2.7,7.1-3.2,10.6-1.7c-5-3.4-15.6-5-22.1-18.2    c-1,7.4-2.5,20.4,10.6,32.1C155.3,512.1,155.5,507,158.8,503.7z"></path>		<path class="st0" d="M263.5,402.7c-2.1,14.3-8.5,48-8.2,62.8c-2.3-8.2-1.5-17.6-1.7-20.7c-1.6-26.5-9.4-45.6-26.4-65.3    c-3.4-4-7.7-9.5-14-17.5C220.9,368.5,260,399.8,263.5,402.7z"></path>		<path class="st0" d="M255.4,258.5c-0.4,14.8,3.2,51.4,5.2,65.7c-3.6,2.9-39.7,31.4-47.3,37.8c6.3-8.1,10.5-13.6,14-17.5    c17-19.7,24.8-38.8,26.4-65.3C253.9,276.1,253.1,266.7,255.4,258.5z"></path>		<path class="st0" d="M234.2,489.7c5.8,5.8,6.3,14.6,1.2,19.6c-5.1,5.1-13.9,4.6-19.6-1.2c-5.8-5.8-6.3-14.5-1.2-19.6    C219.7,483.4,228.5,483.9,234.2,489.7z"></path>		<path class="st0" d="M234.7,214.8c5.1,5.1,4.6,13.9-1.2,19.6c-5.8,5.8-14.6,6.3-19.6,1.2c-5.1-5.1-4.6-13.9,1.2-19.6    C220.8,210.2,229.6,209.7,234.7,214.8z"></path>		<path class="st0" d="M72.4,362c0-33.7,24.1-61.8,53.7-61.1c17.9,0.4,29,7.3,39.4,19.7c-7.8-10.6-15.7-25.7-20.5-38.5    c21.2,35.4,46.8,62.1,68.4,79.9v0c-21.4,17.8-46.8,44.3-68,79.3c-0.1,0-0.1,0-0.2,0c4.9-12.7,12.5-27.5,20.2-37.9    c-10.4,12.4-21.5,19.3-39.4,19.7c-0.4,0-0.7,0-1.1,0C95.8,423.1,72.4,395.3,72.4,362z M180,362c0-12.1-8.4-21.9-18.6-21.9    c-10.3,0-18.6,9.8-18.6,21.9s8.3,21.9,18.6,21.9C171.6,383.9,180,374.1,180,362z M142.9,332.2c2.9-4.2,8.9-5.8,17.5-5.1    c-1.8-1.8-6.4-3-10.8-4.2c-3.2-0.8-5.5-2.3-7.1-4.9c-2-3.4-3.6-5.1-7.1-6.7c5.1,9.2,3.3,28.2-1.2,35.3    C139.7,343.1,139,337.9,142.9,332.2z M160.4,396.9c-8.6,0.6-14.6-0.9-17.5-5.1c-3.9-5.6-3.2-10.9-8.7-14.4    c4.4,7.1,6.3,26,1.2,35.3c3.6-1.6,5.1-3.3,7.1-6.7c1.6-2.6,3.9-4.1,7.1-5C154,399.9,158.7,398.6,160.4,396.9z M137.4,368.6    c0-1.8,0-11.5,0-13.3c-1.5,0-17.6,0-19.6,0c-3.4,0-5-2.6-5.9-4.1c-5.1-9.4-3.7-28.8,2.1-43c-10,3.2-10.9,27.8-12.1,34.2    c-2.2,11.8-8.8,18.3-18.8,19.7c10,1.3,16.6,7.9,18.8,19.6c1.2,6.4,2.1,31,12.1,34.2c-5.7-14.2-7.2-33.6-2.1-43    c0.9-1.6,2.4-4.1,5.9-4.1C119.8,368.6,136,368.6,137.4,368.6z M131.5,331.2c0.5-7.8-6.8-15.6-6.8-21.2c-4.3,2.3-7.7,12-8.8,20.8    c1.1-3.1,4.2-5.7,7.8-5.7C127.3,325.2,130.5,327.9,131.5,331.2z M124.7,414c0.1-5.6,7.4-13.4,6.8-21.2c-1,3.3-4.2,6-7.9,6    c-3.5,0-6.7-2.6-7.8-5.7C116.9,402,120.4,411.7,124.7,414z M129.9,338.3c-1.5,1.6-3.8,2.9-6.2,2.9c-3.9,0-7.3-3.2-8-6.8    c-0.1,4.3,1.3,15.3,5.7,19.3C123.9,345.8,129.1,342.5,129.9,338.3z M123.6,382.8c2.4,0,4.7,1.2,6.2,2.9c-0.8-4.2-6-7.4-8.5-15.3    c-4.4,4-5.8,15-5.7,19.3C116.3,386,119.7,382.8,123.6,382.8z"></path>		<path class="st0" d="M162.3,350.8c5.1,0,9.2,5,9.2,11.2s-4.1,11.2-9.2,11.2c-5.1,0-9.2-5-9.2-11.2S157.2,350.8,162.3,350.8z"></path>		<path class="st0" d="M145.2,441.3c-0.1,0.3-0.2,0.5-0.3,0.8c0,0,0,0,0,0c-23,38.4-40.9,86.9-43.1,145.4    C45.7,523,17.7,442.5,17.7,362C59,399.2,102.6,424.8,145.2,441.3z M102.3,541.5c10.4-64.7,19.4-91-48.2-140.9    c-10-7.4-16.8-13-30.9-27.2c11.3,17.7,20.2,27,28.5,38c27.5,36.8,41.5,56.1,44.4,111c0.6,12.2,0.7,31.1,1.5,47    C99.1,560.6,100.8,551.3,102.3,541.5z"></path>		<path class="st0" d="M101.8,136.7c2.2,58.2,19.9,106.6,42.8,144.9C102.1,298.1,59,324.8,17.7,362    C17.8,281.6,45.8,201.2,101.8,136.7z M54.1,323.4c67.6-49.9,58.6-76.2,48.2-140.9c-1.6-9.8-3.2-19.1-4.7-28    c-0.8,15.9-0.9,34.9-1.5,47c-2.9,54.9-16.9,74.2-44.4,111c-8.2,11-17.2,20.4-28.5,38C37.3,336.4,44.1,330.8,54.1,323.4z"></path>	</g>	<g>	</g></g><rect x="872.5" y="478.1" class="st0" width="947.6" height="19.8"></rect><g>	<path class="st0" d="M935.3,565.3h8.7v45.7c0,4.9-0.8,9.3-2.4,12.9c-1.6,3.7-3.8,6.6-6.7,8.7c-2.8,2.1-6,3.6-9.5,4.6   c-3.5,1-7.3,1.4-11.5,1.4c-8.9,0-16.1-2.2-21.7-6.6c-5.6-4.4-8.4-11.4-8.4-21v-45.7h8.7v45.3c0,13.2,7.2,19.8,21.5,19.8   c14.3,0,21.4-6.6,21.4-19.8V565.3z"></path>	<path class="st0" d="M966.6,565.3h29.6c7.6,0,13.5,1.6,17.9,4.7c4.4,3.1,6.6,7.6,6.6,13.5c0,4.3-1.1,7.7-3.4,10.5   c-2.3,2.7-5,4.5-8.1,5.5c3.8,1,7.2,3,10.1,5.9c2.9,2.9,4.3,7,4.3,12.2c0,3.2-0.6,5.9-1.8,8.3c-1.2,2.4-2.7,4.3-4.5,5.7   c-1.8,1.4-3.9,2.6-6.4,3.5c-2.4,0.9-4.8,1.5-7,1.8c-2.2,0.3-4.5,0.5-6.8,0.5h-30.4V565.3z M1011.9,584.8c0-4.1-1.4-6.9-4.2-8.7   c-2.8-1.7-6.9-2.6-12.3-2.6h-20.2V596h22.6c4.1,0,7.5-0.9,10.1-2.7C1010.6,591.5,1011.9,588.7,1011.9,584.8z M1014.8,616.7   c0-8.3-5.7-12.5-17.2-12.5h-22.4v24.9h20c2.2,0,4.1-0.1,5.6-0.2c1.5-0.1,3.2-0.4,5.2-0.8c1.9-0.4,3.5-1.1,4.6-2   c1.2-0.9,2.2-2.1,3-3.7C1014.4,621,1014.8,619,1014.8,616.7z"></path>	<path class="st0" d="M1037.5,601.9c0-8,1.9-14.9,5.7-20.8c3.8-5.9,8.5-10.2,14.1-12.9c5.6-2.7,11.7-4.1,18.1-4.1   c7.4,0,14.2,1.6,20.3,4.8v8.7c-5.2-3.5-11.5-5.3-18.8-5.3c-8.2,0-15.4,2.5-21.4,7.6c-6,5-9.1,12.4-9.2,22c0,6.1,1.6,11.4,4.7,15.9   c3.1,4.5,7,7.7,11.5,9.7c4.6,2,9.5,3,14.7,3c7.8,0,14.1-1.8,19.1-5.3v8.7c-6.2,3.2-13.2,4.8-20.9,4.8c-4.6,0-9.1-0.8-13.6-2.4   c-4.5-1.6-8.5-3.9-12.2-6.9c-3.6-3-6.6-6.9-8.8-11.6C1038.6,613,1037.5,607.7,1037.5,601.9z"></path>	<path class="st0" d="M1171.1,637.4h-9l-29.9-72.1h9.3l25,62.4l25.1-62.4h9.3L1171.1,637.4z"></path>	<path class="st0" d="M1211.8,637.4h-9.4l31.4-72.1h9.6l31.3,72.1h-9.3L1258,620h-38.8L1211.8,637.4z M1237.4,577l-14.8,35h32   l-14.9-35c-0.1-0.3-0.5-1.3-1.1-2.8C1237.9,575.8,1237.5,576.7,1237.4,577z"></path>	<path class="st0" d="M1298.2,637.4h-8.7v-72.1h8l43.4,57.6v-6.2v-51.4h8.7v72.1h-8l-43.4-57.7v6.2V637.4z"></path>	<path class="st0" d="M1368.2,601.9c0-8,1.9-14.9,5.7-20.8c3.8-5.9,8.5-10.2,14.1-12.9c5.6-2.7,11.7-4.1,18.1-4.1   c7.4,0,14.2,1.6,20.3,4.8v8.7c-5.2-3.5-11.5-5.3-18.8-5.3c-8.2,0-15.4,2.5-21.4,7.6c-6,5-9.1,12.4-9.2,22c0,6.1,1.6,11.4,4.7,15.9   c3.1,4.5,7,7.7,11.5,9.7c4.6,2,9.5,3,14.7,3c7.8,0,14.1-1.8,19.1-5.3v8.7c-6.2,3.2-13.2,4.8-20.9,4.8c-4.6,0-9.1-0.8-13.6-2.4   c-4.5-1.6-8.5-3.9-12.2-6.9c-3.6-3-6.6-6.9-8.8-11.6C1369.3,613,1368.2,607.7,1368.2,601.9z"></path>	<path class="st0" d="M1441.1,615.1c-1.6-4.4-2.4-9-2.4-13.7s0.8-9.3,2.4-13.7c1.6-4.4,3.9-8.4,7-11.9c3-3.5,7-6.4,11.8-8.5   c4.9-2.1,10.4-3.2,16.5-3.2c6.1,0,11.6,1.1,16.5,3.2c4.9,2.1,8.8,5,11.8,8.5c3,3.5,5.3,7.5,7,11.9c1.6,4.4,2.4,9,2.4,13.7   s-0.8,9.3-2.4,13.7c-1.6,4.4-3.9,8.4-7,11.9c-3,3.5-7,6.4-11.8,8.5c-4.9,2.1-10.4,3.2-16.5,3.2c-6.1,0-11.6-1.1-16.5-3.2   c-4.9-2.1-8.8-5-11.8-8.5C1445,623.5,1442.7,619.5,1441.1,615.1z M1503.5,612.2c1.2-3.4,1.8-7,1.8-10.8c0-3.8-0.6-7.4-1.8-10.8   c-1.2-3.4-3-6.5-5.3-9.3c-2.3-2.7-5.3-4.9-9.1-6.5c-3.8-1.6-8-2.4-12.8-2.4s-9,0.8-12.8,2.4c-3.8,1.6-6.8,3.8-9.1,6.5   c-2.3,2.7-4.1,5.8-5.3,9.3c-1.2,3.4-1.8,7-1.8,10.8c0,3.8,0.6,7.4,1.8,10.8c1.2,3.4,3,6.5,5.3,9.3c2.3,2.7,5.3,4.9,9.1,6.5   c3.8,1.6,8,2.4,12.8,2.4s9-0.8,12.8-2.4c3.8-1.6,6.8-3.8,9.1-6.5C1500.6,618.7,1502.3,615.6,1503.5,612.2z"></path>	<path class="st0" d="M1583.5,565.3h8.7v45.7c0,4.9-0.8,9.3-2.4,12.9c-1.6,3.7-3.8,6.6-6.7,8.7c-2.8,2.1-6,3.6-9.5,4.6   c-3.5,1-7.3,1.4-11.5,1.4c-8.9,0-16.1-2.2-21.7-6.6c-5.6-4.4-8.4-11.4-8.4-21v-45.7h8.7v45.3c0,13.2,7.2,19.8,21.5,19.8   c14.3,0,21.4-6.6,21.4-19.8V565.3z"></path>	<path class="st0" d="M1645.3,637.4h-9l-29.9-72.1h9.3l25,62.4l25.1-62.4h9.3L1645.3,637.4z"></path>	<path class="st0" d="M1690.3,565.3h48.6v8.2h-40V597h36.9v8.2H1699v24h40.6v8.2h-49.2V565.3z"></path>	<path class="st0" d="M1767.3,637.4h-8.7v-72.1h28.2c4.7,0,9,0.6,12.9,1.9c3.8,1.3,7.2,3.6,9.9,7s4.2,7.7,4.2,12.9   c0,6.2-1.8,11-5.4,14.4c-3.6,3.4-8.2,5.7-13.9,6.7l24.4,29.1h-10.8l-23.6-28.4h-17.3V637.4z M1767.3,573.6v27.2h20   c5.1,0,9.3-1,12.7-3.1c3.4-2.1,5.1-5.6,5.1-10.5c0-4.9-1.7-8.4-5.1-10.5c-3.4-2.1-7.6-3.1-12.7-3.1H1767.3z"></path></g><g>	<path class="st1" d="M889.1,225.9c0-38.3,9.2-71.6,27.5-99.8c18.3-28.2,41.3-48.8,69-61.8c27.7-13,57.5-19.5,89.5-19.5   c38.7,0,73.7,7.8,105,23.5v42c-27-17-60-25.5-99-25.5c-19,0-37.2,2.8-54.5,8.2c-17.3,5.5-33.2,13.7-47.8,24.5   c-14.5,10.8-26,25.6-34.5,44.3c-8.5,18.7-12.8,40-12.8,64c0,25.3,4.3,47.4,13,66.2c8.7,18.8,20.3,33.5,35,44   c14.7,10.5,30.6,18.2,47.8,23.2c17.2,5,35.4,7.5,54.8,7.5c25,0,46.5-4.3,64.5-13v-139h42v168.5c-34,15.7-70.5,23.5-109.5,23.5   c-25,0-48.5-3.3-70.5-10s-42.1-16.9-60.2-30.8c-18.2-13.8-32.6-32.8-43.2-56.8C894.4,285.4,889.1,257.6,889.1,225.9z"></path>	<path class="st1" d="M1251.6,137.4c0-29.7,11.5-52.5,34.5-68.5s51.5-24,85.5-24c41,0,76.3,8.5,106,25.5v42   c-29.3-19-63.7-28.2-103-27.5c-53.7,0-80.5,17-80.5,51c0,13.7,5.2,25.3,15.5,35c10.3,9.7,23.2,17,38.5,22   c15.3,5,32.1,10.8,50.2,17.2c18.2,6.5,34.9,13.2,50.2,20c15.3,6.8,28.2,17.2,38.5,31.2c10.3,14,15.5,30.8,15.5,50.5   c0,16.7-3.6,31.3-10.8,44c-7.2,12.7-16.9,22.7-29.2,30c-12.3,7.3-26,12.7-41,16s-31.2,5-48.5,5c-44.3,0-84.3-10-120-30v-42   c35,21.3,74,32,117,32c60,0,90-17.3,90-52c0-12.7-3.8-23.6-11.5-32.8c-7.7-9.2-17.7-16.6-30-22.2c-12.3-5.7-25.9-10.8-40.8-15.5   c-14.8-4.7-29.6-9.8-44.2-15.2c-14.7-5.5-28.2-11.8-40.5-19c-12.3-7.2-22.3-16.9-30-29.2C1255.4,168.6,1251.6,154.1,1251.6,137.4z"></path>	<path class="st1" d="M1552,137.4c0-29.7,11.5-52.5,34.5-68.5s51.5-24,85.5-24c41,0,76.3,8.5,106,25.5v42   c-29.3-19-63.7-28.2-103-27.5c-53.7,0-80.5,17-80.5,51c0,13.7,5.2,25.3,15.5,35c10.3,9.7,23.2,17,38.5,22   c15.3,5,32.1,10.8,50.2,17.2c18.2,6.5,34.9,13.2,50.2,20c15.3,6.8,28.2,17.2,38.5,31.2c10.3,14,15.5,30.8,15.5,50.5   c0,16.7-3.6,31.3-10.8,44c-7.2,12.7-16.9,22.7-29.2,30c-12.3,7.3-26,12.7-41,16s-31.2,5-48.5,5c-44.3,0-84.3-10-120-30v-42   c35,21.3,74,32,117,32c60,0,90-17.3,90-52c0-12.7-3.8-23.6-11.5-32.8c-7.7-9.2-17.7-16.6-30-22.2c-12.3-5.7-25.9-10.8-40.8-15.5   c-14.8-4.7-29.6-9.8-44.2-15.2c-14.7-5.5-28.2-11.8-40.5-19c-12.3-7.2-22.3-16.9-30-29.2C1555.9,168.6,1552,154.1,1552,137.4z"></path></g></svg>